# xmcd
#
# Track frame offsets:
#	150
#	17987
#	34012
#	46187
#	60737
#	80937
#	100650
#	115975
#	130787
#	146550
#	163712
#	181887
#
# Disc length: 2668
#
# Revision: 1
# Processed by: cddbd v1.5.1PL0 Copyright (c) Steve Scherf et al.
# Submitted via: audiograbber 1.81.00
# Normalized: r0:TDELIM( - )
#
DISCID=a00a6a0c
DTITLE=GRANDI CANZONI, GRANDI INTERPRETI - LA CANZONE NAPOLETANA TU NA' COSA GRANDE
DYEAR=1900
DGENRE=POP
TTITLE0=LUNA ROSSA - RENZO ARBORE
TTITLE1=TU SI' NA' COSA GRANDE - DOMENICO MODUGNO
TTITLE2=SOLE GIALLO - VAN WOOD
TTITLE3=CHE M' E 'MPARATO A FA' - SOPHIA  LOREN
TTITLE4=Traccia  'A CANZUCELLA - GLI ALUNNI DEL SOLE5
TTITLE5=VOGLIA 'E TORNA - TERESA DE SIO
TTITLE6='NA TAZZULELLA 7'E CAFE - PINO DANIELE
TTITLE7=NUN E PECCATO - PEPPINO DI CAPRI
TTITLE8=TU VUO' FA' L'AMERICANO - RENATO CAROSONE
TTITLE9=DOCE DOCE - FRED BONGUSTO
TTITLE10=AJERE - VALENTINA STELLA
TTITLE11=SMOG &STRESS - GRAGNANIELLO
EXTD=
EXTT0=
EXTT1=
EXTT2=
EXTT3=
EXTT4=
EXTT5=
EXTT6=
EXTT7=
EXTT8=
EXTT9=
EXTT10=
EXTT11=
PLAYORDER=
